<?xml version="1.0" encoding="UTF-8" standalone="no"?>
<!-- Created with Inkscape (http://www.inkscape.org/) -->

<svg
   width="632.89124mm"
   height="162.00459mm"
   viewBox="0 0 632.89124 162.00459"
   version="1.1"
   id="svg5"
   xml:space="preserve"
   xmlns:inkscape="http://www.inkscape.org/namespaces/inkscape"
   xmlns:sodipodi="http://sodipodi.sourceforge.net/DTD/sodipodi-0.dtd"
   xmlns:xlink="http://www.w3.org/1999/xlink"
   xmlns="http://www.w3.org/2000/svg"
   xmlns:svg="http://www.w3.org/2000/svg"><sodipodi:namedview
     id="namedview7"
     pagecolor="#eeeeee"
     bordercolor="#eeeeee"
     borderopacity="1"
     inkscape:showpageshadow="0"
     inkscape:pageopacity="0"
     inkscape:pagecheckerboard="0"
     inkscape:deskcolor="#eeeeee"
     inkscape:document-units="mm"
     showgrid="false"
     showborder="false"
     showguides="true" /><defs
     id="defs2"><rect
       x="-416.26859"
       y="-685.74707"
       width="2268.918"
       height="976.64178"
       id="rect4590" /><rect
       x="-669.2323"
       y="-1495.2603"
       width="2036.3322"
       height="436.86267"
       id="rect4584" /><linearGradient
       id="linearGradient1704"
       inkscape:swatch="solid"><stop
         style="stop-color:#55565a;stop-opacity:1;"
         offset="0"
         id="stop1702" /></linearGradient><linearGradient
       inkscape:collect="always"
       id="linearGradient7425"><stop
         style="stop-color:#79d0e1;stop-opacity:1;"
         offset="0"
         id="stop7421" /><stop
         style="stop-color:#c7e9f4;stop-opacity:1;"
         offset="0.22547516"
         id="stop7423" /></linearGradient><linearGradient
       inkscape:collect="always"
       id="linearGradient7257"><stop
         style="stop-color:#79d0e1;stop-opacity:1;"
         offset="0.31443903"
         id="stop7253" /><stop
         style="stop-color:#c7e9f4;stop-opacity:1;"
         offset="0.74723089"
         id="stop7255" /></linearGradient><linearGradient
       inkscape:collect="always"
       id="linearGradient7184"><stop
         style="stop-color:#79d0e1;stop-opacity:1;"
         offset="0.5697425"
         id="stop7180" /><stop
         style="stop-color:#c7e9f4;stop-opacity:1;"
         offset="1"
         id="stop7182" /></linearGradient><linearGradient
       inkscape:collect="always"
       id="linearGradient7178"><stop
         style="stop-color:#79d0e1;stop-opacity:1;"
         offset="0.07478873"
         id="stop7174" /><stop
         style="stop-color:#c7e9f4;stop-opacity:1;"
         offset="0.52210885"
         id="stop7176" /></linearGradient><linearGradient
       inkscape:collect="always"
       id="linearGradient7028"><stop
         style="stop-color:#79d0e1;stop-opacity:1;"
         offset="0.34006912"
         id="stop7024" /><stop
         style="stop-color:#c7e9f4;stop-opacity:1;"
         offset="0.89625996"
         id="stop7026" /></linearGradient><linearGradient
       inkscape:collect="always"
       xlink:href="#linearGradient7028"
       id="linearGradient7030"
       x1="271.68274"
       y1="60.681042"
       x2="297.56979"
       y2="60.681042"
       gradientUnits="userSpaceOnUse"
       gradientTransform="matrix(0,6.2581239,-0.21340778,0,370.6707,-1752.1802)" /><linearGradient
       inkscape:collect="always"
       xlink:href="#linearGradient7257"
       id="linearGradient7126"
       gradientUnits="userSpaceOnUse"
       gradientTransform="matrix(0,6.2581239,-0.21340778,0,332.8648,-1752.1802)"
       x1="271.68274"
       y1="60.681042"
       x2="297.56979"
       y2="60.681042" /><linearGradient
       inkscape:collect="always"
       xlink:href="#linearGradient7184"
       id="linearGradient7171"
       gradientUnits="userSpaceOnUse"
       gradientTransform="matrix(0,6.2581239,-0.21340778,0,408.47661,-1752.1802)"
       x1="271.68274"
       y1="60.681042"
       x2="297.56979"
       y2="60.681042" /><linearGradient
       inkscape:collect="always"
       xlink:href="#linearGradient7178"
       id="linearGradient7250"
       gradientUnits="userSpaceOnUse"
       gradientTransform="matrix(0,6.2581239,-0.21340778,0,295.05898,-1752.1802)"
       x1="271.68274"
       y1="60.681042"
       x2="297.56979"
       y2="60.681042" /><linearGradient
       inkscape:collect="always"
       xlink:href="#linearGradient7425"
       id="linearGradient7418"
       gradientUnits="userSpaceOnUse"
       gradientTransform="matrix(0,6.2581239,-0.21340778,0,257.25307,-1752.1802)"
       x1="271.68274"
       y1="60.681042"
       x2="297.56979"
       y2="60.681042" /></defs><g
     inkscape:groupmode="layer"
     id="layer2"
     inkscape:label="Option 2"
     style="display:inline"
     transform="translate(398.47871,395.62093)"><g
       id="g4568"
       transform="translate(-398.4787,-395.62094)"
       inkscape:export-filename="./myoguide-diagnose_banner.svg"
       inkscape:export-xdpi="96"
       inkscape:export-ydpi="96"><g
         id="layer2-5"
         inkscape:label="Option 2"
         style="display:inline"
         transform="translate(158.76348,-38.338015)"><g
           inkscape:label="Layer 1"
           id="layer1-5"
           transform="translate(-389.45571,90.294039)"><path
             id="rect7022"
             style="fill:url(#linearGradient7030);fill-opacity:1;stroke-width:0.529998;stroke-linecap:round;stroke-linejoin:round;stroke-miterlimit:4.5;stroke-opacity:0.937255"
             d="m 357.72116,-51.956024 c -7.5405,0 -13.61106,6.070561 -13.61106,13.611055 v 32.1355056 h 27.2216 V -38.344969 c 0,-7.540494 -6.07005,-13.611055 -13.61054,-13.611055 z M 344.1101,11.149168 v 85.288333 c 0,7.540489 6.07056,13.611059 13.61106,13.611059 7.54049,0 13.61054,-6.07057 13.61054,-13.611059 V 11.149168 Z" /><path
             id="rect7022-2"
             style="fill:url(#linearGradient7126);fill-opacity:1;stroke-width:0.529998;stroke-linecap:round;stroke-linejoin:round;stroke-miterlimit:4.5;stroke-opacity:0.937255"
             d="m 319.9152,-51.956024 c -7.5405,0 -13.61106,6.070561 -13.61106,13.611055 V 25.48266 h 27.22211 v -63.827629 c 0,-7.540494 -6.07056,-13.611055 -13.61105,-13.611055 z M 306.30414,42.84129 v 53.596211 c 0,7.540489 6.07056,13.611059 13.61106,13.611059 7.54049,0 13.61105,-6.07057 13.61105,-13.611059 V 42.84129 Z" /><path
             id="rect7022-2-7"
             style="fill:url(#linearGradient7250);fill-opacity:1;stroke-width:0.529998;stroke-linecap:round;stroke-linejoin:round;stroke-miterlimit:4.5;stroke-opacity:0.937255"
             d="m 282.10924,-51.956024 c -7.5405,0 -13.61106,6.070561 -13.61106,13.611055 V 66.073464 h 27.22211 V -38.344969 c 0,-7.540494 -6.07056,-13.611055 -13.61105,-13.611055 z M 268.49818,83.432091 v 13.00541 c 0,7.540489 6.07056,13.611059 13.61106,13.611059 7.54049,0 13.61105,-6.07057 13.61105,-13.611059 v -13.00541 z" /><path
             id="rect7022-2-7-5"
             style="fill:url(#linearGradient7418);fill-opacity:1;stroke-width:0.529998;stroke-linecap:round;stroke-linejoin:round;stroke-miterlimit:4.5;stroke-opacity:0.937255"
             d="m 244.30327,-51.956024 c -7.54049,0 -13.61105,6.070561 -13.61105,13.611055 v 26.702763 h 27.22211 v -26.702763 c 0,-7.540494 -6.07056,-13.611055 -13.61106,-13.611055 z M 230.69222,5.7159076 V 96.437501 c 0,7.540489 6.07056,13.611059 13.61105,13.611059 7.5405,0 13.61106,-6.07057 13.61106,-13.611059 V 5.7159076 Z" /><path
             id="rect7022-2-1"
             style="fill:url(#linearGradient7171);fill-opacity:1;stroke-width:0.529998;stroke-linecap:round;stroke-linejoin:round;stroke-miterlimit:4.5;stroke-opacity:0.937255"
             d="m 395.5266,-51.956024 c -7.54049,0 -13.61054,6.070561 -13.61054,13.611055 v 90.697823 h 27.2216 v -90.697823 c 0,-7.540494 -6.07056,-13.611055 -13.61106,-13.611055 z M 381.91606,69.710968 v 26.726533 c 0,7.540489 6.07005,13.611059 13.61054,13.611059 7.5405,0 13.61106,-6.07057 13.61106,-13.611059 V 69.710968 Z" /><path
             id="rect8256"
             style="fill:#55565a;stroke-width:0.53;stroke-linecap:round;stroke-linejoin:round;stroke-miterlimit:4.5;stroke-opacity:0.937255"
             d="m 230.69226,-8.0788565 h 27.22202 v 10.231617 h -27.22202 z" /><path
             id="rect8256-6"
             style="fill:#55565a;stroke-width:0.53;stroke-linecap:round;stroke-linejoin:round;stroke-miterlimit:4.5;stroke-opacity:0.937255"
             d="m 268.49814,69.636917 h 27.22202 v 10.231617 h -27.22202 z" /><path
             id="rect8256-5"
             style="fill:#55565a;stroke-width:0.53;stroke-linecap:round;stroke-linejoin:round;stroke-miterlimit:4.5;stroke-opacity:0.937255"
             d="m 306.30405,29.046154 h 27.22202 v 10.231617 h -27.22202 z" /><path
             id="rect8256-69"
             style="fill:#55565a;stroke-width:0.53;stroke-linecap:round;stroke-linejoin:round;stroke-miterlimit:4.5;stroke-opacity:0.937255"
             d="m 344.10992,-2.6459954 h 27.22203 v 10.231617 h -27.22203 z" /><path
             id="rect8256-3"
             style="fill:#55565a;stroke-width:0.53;stroke-linecap:round;stroke-linejoin:round;stroke-miterlimit:4.5;stroke-opacity:0.937255"
             d="m 381.91583,55.916157 h 27.22202 v 10.231617 h -27.22202 z" /></g></g></g><g
       aria-label="MYOGUIDE"
       transform="matrix(0.26458333,0,0,0.26458333,-22.068794,-19.096515)"
       id="text4582"
       style="font-size:322.943px;font-family:Ubuntu;-inkscape-font-specification:'Ubuntu, Normal';text-align:justify;white-space:pre;shape-inside:url(#rect4584);fill:#55565a;stroke-width:2.00315;stroke-linecap:round;stroke-linejoin:round;stroke-miterlimit:4.5;stroke-opacity:0.937255"><path
         d="m -541.02405,-1225.1205 q -3.22943,-7.7506 -8.71946,-19.6995 -5.16709,-11.9489 -11.30301,-25.8354 -6.13592,-13.8866 -13.24066,-28.419 -6.7818,-14.8554 -12.91772,-27.7731 -6.13592,-13.2407 -11.62595,-23.5749 -5.16709,-10.3341 -8.39652,-15.8242 -3.55237,38.1073 -5.81297,82.6734 -2.2606,44.2432 -3.87532,89.4553 h -30.67958 q 1.29177,-29.0649 2.90649,-58.4527 1.61471,-29.7108 3.55237,-58.1298 2.2606,-28.7419 4.5212,-55.8691 2.58354,-27.1272 5.49003,-51.3479 h 27.45016 q 8.71946,14.2095 18.73069,33.586 10.01123,19.3766 20.02246,40.6908 10.01124,20.9913 19.37658,42.3056 9.36535,20.9913 17.11598,38.4302 7.75063,-17.4389 17.11598,-38.4302 9.36535,-21.3143 19.37658,-42.3056 10.01123,-21.3142 20.02247,-40.6908 10.01123,-19.3765 18.73069,-33.586 h 27.45015 q 10.98007,108.1859 16.4701,223.7995 h -30.67959 q -1.61471,-45.2121 -3.87531,-89.4553 -2.2606,-44.5661 -5.81298,-82.6734 -3.22943,5.4901 -8.71946,15.8242 -5.16709,10.3342 -11.303,23.5749 -6.13592,12.9177 -13.24066,27.7731 -6.78181,14.5324 -12.91772,28.419 -6.13592,13.8865 -11.62595,25.8354 -5.16709,11.9489 -8.39652,19.6995 z"
         id="path5682" /><path
         d="m -309.47488,-1194.1179 v -89.7782 q -22.28306,-34.5549 -41.98259,-68.141 -19.69952,-33.586 -37.13844,-65.8803 h 36.8155 q 12.27183,26.4813 27.45015,53.9314 15.17832,27.1273 31.32547,52.3168 15.82421,-25.1895 31.00253,-52.3168 15.17832,-27.4501 27.7731,-53.9314 h 34.87784 q -17.43892,32.2943 -37.13844,65.8803 -19.69952,33.2632 -41.65965,67.4951 v 90.4241 z"
         id="path5684" /><path
         d="m -191.92388,-1306.1792 q 0,-28.7419 8.39652,-50.702 8.71946,-21.9601 23.2519,-36.4926 14.85537,-14.8553 34.23195,-22.283 19.69953,-7.4277 41.659649,-7.4277 21.63718,0 40.690817,7.4277 19.37658,7.4277 33.9090142,22.283 14.5324347,14.5325 22.9289528,36.4926 8.719461,21.9601 8.719461,50.702 0,28.742 -8.719461,50.7021 -8.3965181,21.9601 -22.9289528,36.8155 -14.5324342,14.5324 -33.9090142,21.9601 -19.053637,7.4277 -40.690817,7.4277 -21.960119,0 -41.659649,-7.4277 -19.37658,-7.4277 -34.23195,-21.9601 -14.53244,-14.8554 -23.2519,-36.8155 -8.39652,-21.9601 -8.39652,-50.7021 z m 32.94019,0 q 0,20.3454 5.16709,37.1385 5.16708,16.4701 14.53243,28.096 9.68829,11.626 23.2519,18.0848 13.88654,6.1359 31.002523,6.1359 17.115978,0 30.679584,-6.1359 13.563606,-6.4588 22.928953,-18.0848 9.688289,-11.6259 14.855377,-28.096 5.167088,-16.7931 5.167088,-37.1385 0,-20.3454 -5.167088,-36.8155 -5.167088,-16.793 -14.855377,-28.4189 -9.365347,-11.626 -22.928953,-17.7619 -13.563606,-6.4589 -30.679584,-6.4589 -17.115983,0 -31.002523,6.4589 -13.56361,6.1359 -23.2519,17.7619 -9.36535,11.6259 -14.53243,28.4189 -5.16709,16.4701 -5.16709,36.8155 z"
         id="path5686" /><path
         d="m 204.97302,-1304.2415 h 31.32547 v 104.6335 q -3.87532,1.2918 -11.30301,2.9065 -7.10475,1.6147 -16.79303,3.2294 -9.36535,1.6148 -20.66836,2.5836 -11.303,1.2918 -22.92895,1.2918 -23.57484,0 -42.95142,-7.7507 -19.37658,-7.7506 -33.263125,-22.606 -13.886549,-14.8554 -21.637181,-36.4925 -7.427689,-21.6372 -7.427689,-49.7333 0,-28.096 8.396518,-49.7332 8.719461,-21.9601 23.251896,-36.8155 14.532431,-14.8554 33.909011,-22.606 19.69953,-7.7506 41.98259,-7.7506 15.17832,0 26.80427,1.9376 11.94889,1.9377 20.34541,4.5212 8.39652,2.5836 13.5636,5.1671 5.49004,2.5836 7.42769,3.8753 l -10.01123,26.1584 q -9.36535,-6.1359 -24.86661,-10.0112 -15.50126,-4.1983 -31.64841,-4.1983 -17.11598,0 -31.32547,6.1359 -13.88655,6.136 -23.89778,17.7619 -9.68829,11.626 -15.178325,28.419 -5.490031,16.4701 -5.490031,37.1384 0,20.0225 4.521202,36.4926 4.844144,16.4701 14.209494,28.419 9.68829,11.6259 23.57484,18.0848 14.20949,6.4588 33.26312,6.4588 13.56361,0 22.92896,-1.2917 9.68829,-1.6147 13.88655,-2.9065 z"
         id="path5688" /><path
         d="m 368.70482,-1189.2738 q -21.96013,0 -38.10728,-6.7818 -16.14715,-6.7818 -26.48132,-18.4078 -10.33418,-11.9488 -15.50127,-28.096 -4.84414,-16.1471 -4.84414,-34.8778 v -140.4802 h 31.32547 v 136.9278 q 0,33.5861 14.85538,48.7644 14.85537,15.1783 38.75316,15.1783 11.94889,0 21.63718,-3.5524 10.01123,-3.8753 17.11598,-11.6259 7.10474,-7.7506 10.98006,-19.6995 3.87531,-12.2719 3.87531,-29.0649 v -136.9278 h 31.32547 v 140.4802 q 0,18.7307 -5.16708,34.8778 -4.84415,16.1472 -15.50127,28.096 -10.33417,11.626 -26.48132,18.4078 -15.82421,6.7818 -37.78433,6.7818 z"
         id="path5690" /><path
         d="m 507.57022,-1417.9174 h 31.32547 v 223.7995 h -31.32547 z"
         id="path5692" /><path
         d="m 778.19612,-1306.1792 q 0,29.0649 -9.04241,50.7021 -9.0424,21.3142 -25.51249,35.5237 -16.4701,13.8866 -39.39905,20.9913 -22.92895,6.7818 -50.3791,6.7818 -13.56361,0 -30.0337,-1.2918 -16.14715,-0.9688 -29.38782,-4.1982 v -217.0177 q 13.24067,-3.2294 29.38782,-4.1983 16.47009,-1.2917 30.0337,-1.2917 27.45015,0 50.3791,7.1047 22.92895,6.7818 39.39905,20.9913 16.47009,13.8865 25.51249,35.5237 9.04241,21.3143 9.04241,50.3791 z m -121.74951,86.5488 q 44.56613,0 66.52626,-22.6061 21.96012,-22.9289 21.96012,-63.9427 0,-41.0137 -21.96012,-63.6197 -21.96013,-22.929 -66.52626,-22.929 -13.24066,0 -20.66835,0.323 -7.10475,0.3229 -10.01124,0.6458 v 171.1598 q 2.90649,0.323 10.01124,0.6459 7.42769,0.323 20.66835,0.323 z"
         id="path5694" /><path
         d="m 824.69973,-1194.1179 v -223.7995 h 136.60489 v 26.8042 H 856.0252 v 66.5263 h 93.65347 v 26.1584 H 856.0252 v 77.5063 h 113.35299 v 26.8043 z"
         id="path5696" /></g><g
       aria-label="DIAGNOSE"
       transform="matrix(0.28385887,0,0,0.28385887,-83.500222,-125.81809)"
       id="text4588"
       style="font-weight:300;font-size:322.943px;font-family:Ubuntu;-inkscape-font-specification:'Ubuntu, Light';text-align:justify;white-space:pre;shape-inside:url(#rect4590);fill:#26436e;stroke-width:1.86712;stroke-linecap:round;stroke-linejoin:round;stroke-miterlimit:4.5;stroke-opacity:0.937255"><path
         d="m -209.58602,-496.66549 q 0,28.74192 -9.0424,50.05616 -9.0424,21.31424 -25.5125,35.52373 -16.14715,14.20949 -38.75316,21.31424 -22.606,7.10474 -49.73322,7.10474 -13.5636,0 -28.41898,-1.61471 -14.85538,-1.29177 -26.15838,-4.19826 v -215.72592 q 11.303,-3.22943 26.15838,-4.5212 14.85538,-1.61472 28.41898,-1.61472 27.12722,0 49.73322,7.10475 22.60601,7.10475 38.75316,21.31424 16.4701,14.20949 25.5125,35.52373 9.0424,21.31423 9.0424,49.73322 z m -155.65852,92.68464 q 1.93766,0.32294 9.68829,1.29177 8.07358,0.96883 25.5125,0.96883 24.22072,0 42.30553,-6.45886 18.08481,-6.7818 30.35664,-19.05364 12.27184,-12.27183 18.40775,-29.71075 6.13592,-17.76187 6.13592,-39.72199 0,-21.96013 -6.13592,-39.39905 -6.13591,-17.43892 -18.40775,-29.71075 -12.27183,-12.27184 -30.35664,-18.7307 -18.08481,-6.7818 -42.30553,-6.7818 -17.43892,0 -25.5125,0.96883 -7.75063,0.96883 -9.68829,1.29177 z"
         id="path5699" /><path
         d="m -160.49879,-608.40377 h 21.96012 v 223.7995 h -21.96012 z"
         id="path5701" /><path
         d="m 70.082244,-384.60427 q -6.135917,-16.4701 -11.625948,-31.64842 -5.49003,-15.17832 -10.657118,-29.71075 H -61.032611 q -5.490031,14.53243 -10.980062,29.71075 -5.490031,15.17832 -11.303005,31.64842 h -22.928952 q 12.91772,-34.87785 24.220724,-64.91154 11.303005,-30.35665 21.960124,-57.16091 10.980062,-27.12722 21.63718,-51.99383 10.657119,-24.86661 22.60601,-49.73322 H 3.5559875 q 11.9488905,24.86661 22.6060095,49.73322 10.657119,24.86661 21.314238,51.99383 10.980061,26.80426 22.283066,57.16091 11.303005,30.03369 24.543668,64.91154 z M -6.7781882,-583.21421 q -12.2718338,27.77309 -23.8977818,56.51502 -11.303004,28.74193 -23.574838,62.00505 H 41.017375 Q 28.745541,-497.95726 17.119593,-526.69919 5.4936455,-555.44112 -6.7781882,-583.21421 Z"
         id="path5703" /><path
         d="m 263.5243,-490.52957 h 21.96013 v 99.78938 q -6.13592,2.58354 -24.22073,6.45886 -17.76186,4.19826 -43.92025,4.19826 -21.96012,0 -40.69081,-7.75063 -18.7307,-7.75063 -32.61725,-22.28307 -13.5636,-14.85538 -21.31423,-36.49256 -7.75064,-21.96012 -7.75064,-50.05616 0,-28.09604 8.39652,-49.73322 8.39652,-21.96013 22.60601,-36.49256 14.53244,-14.85538 33.58607,-22.60601 19.05364,-7.75063 40.69082,-7.75063 24.86661,0 41.01376,5.49003 16.14715,5.16709 23.57484,10.01123 l -7.42769,18.7307 q -9.0424,-6.45886 -24.54367,-10.33418 -15.50126,-4.19826 -33.58607,-4.19826 -16.79303,0 -31.64841,6.13592 -14.85538,6.13591 -25.83544,18.40775 -10.98006,12.27183 -17.43892,30.35664 -6.13592,18.08481 -6.13592,41.98259 0,22.28306 5.16709,40.36787 5.16709,17.76187 15.50126,30.67959 10.65712,12.59477 26.15838,19.37658 15.50127,6.7818 35.84668,6.7818 16.47009,0 27.45015,-1.61472 11.30301,-1.93765 15.17832,-3.55237 z"
         id="path5705" /><path
         d="m 488.93818,-384.60427 q -6.13592,-11.30301 -15.82421,-26.48133 -9.36535,-15.17832 -20.66835,-32.2943 -11.30301,-17.43892 -23.89778,-35.52373 -12.59478,-18.40775 -25.18956,-35.52373 -12.27183,-17.43892 -24.22072,-32.61724 -11.62595,-15.17832 -20.9913,-26.15838 v 188.59871 h -21.63718 v -223.7995 H 353.948 q 16.4701,18.40775 35.20079,42.62848 19.05364,23.89778 37.13845,49.08733 18.0848,24.86661 33.58607,48.76439 15.8242,23.89779 25.83544,41.65965 v -182.13985 h 21.63718 v 223.7995 z"
         id="path5707" /><path
         d="m 766.34612,-496.66549 q 0,28.74192 -8.39652,50.70205 -8.39652,21.96012 -22.92895,36.8155 -14.2095,14.53243 -33.26313,21.96012 -19.05364,7.42769 -40.36788,7.42769 -21.31423,0 -40.36787,-7.42769 -19.05364,-7.42769 -33.58607,-21.96012 -14.20949,-14.85538 -22.60601,-36.8155 -8.39652,-21.96013 -8.39652,-50.70205 0,-28.74193 8.39652,-50.37911 8.39652,-21.96012 22.60601,-36.49256 14.53243,-14.85537 33.58607,-22.28306 19.05364,-7.42769 40.36787,-7.42769 21.31424,0 40.36788,7.42769 19.05363,7.42769 33.26313,22.28306 14.53243,14.53244 22.92895,36.49256 8.39652,21.63718 8.39652,50.37911 z m -23.2519,0 q 0,-22.60601 -5.81297,-40.36788 -5.81298,-18.0848 -16.4701,-30.67958 -10.65711,-12.59478 -25.83543,-19.05364 -14.85538,-6.7818 -33.58608,-6.7818 -18.73069,0 -33.90901,6.7818 -14.85538,6.45886 -25.5125,19.05364 -10.65712,12.59478 -16.47009,30.67958 -5.81297,17.76187 -5.81297,40.36788 0,22.60601 5.81297,40.69082 5.81297,17.76186 16.47009,30.35664 10.65712,12.59477 25.5125,19.37658 15.17832,6.7818 33.90901,6.7818 18.7307,0 33.58608,-6.7818 15.17832,-6.78181 25.83543,-19.37658 10.65712,-12.59478 16.4701,-30.35664 5.81297,-18.08481 5.81297,-40.69082 z"
         id="path5709" /><path
         d="m 863.55142,-398.81376 q 26.15838,0 40.69081,-9.36535 14.53244,-9.68829 14.53244,-31.00253 0,-12.27183 -4.84415,-20.34541 -4.5212,-8.39652 -12.27183,-13.88655 -7.75063,-5.81297 -17.76186,-9.68829 -10.01124,-4.19825 -20.9913,-8.71946 -13.88655,-5.49003 -24.86661,-11.303 -10.98006,-5.81298 -18.73069,-12.91772 -7.75063,-7.42769 -11.94889,-16.79304 -3.87532,-9.36534 -3.87532,-21.96012 0,-28.74193 19.05364,-43.5973 19.05363,-14.85538 52.96265,-14.85538 9.0424,0 17.76186,1.29177 8.71946,1.29177 16.14715,3.55237 7.75063,1.93766 13.88655,4.5212 6.45886,2.58355 10.65712,5.49004 l -7.75063,18.40775 q -9.36535,-6.45886 -22.92895,-10.33418 -13.24067,-3.87532 -28.74193,-3.87532 -10.65712,0 -19.69952,2.26061 -8.71946,1.93765 -15.17832,6.7818 -6.45886,4.5212 -10.33418,11.62595 -3.55237,7.10474 -3.55237,17.11597 0,10.33418 3.87531,17.43893 3.87532,7.10474 10.65712,12.27183 7.10475,5.16709 16.47009,9.36535 9.36535,4.19826 20.34541,8.71946 13.24067,5.49003 24.86661,10.98006 11.94889,5.49003 20.66836,12.91772 8.71946,7.42769 13.88654,18.08481 5.16709,10.65712 5.16709,26.15838 0,30.35664 -21.31424,45.53496 -20.99129,15.17832 -57.16091,15.17832 -12.91772,0 -23.57483,-1.61471 -10.65712,-1.61472 -19.05364,-3.87532 -8.39652,-2.58354 -14.20949,-5.16709 -5.81298,-2.58354 -9.04241,-4.5212 l 7.10475,-19.05364 q 3.22943,1.93766 8.71946,4.52121 5.49003,2.58354 12.91772,5.16708 7.42769,2.26061 16.79304,3.87532 9.36534,1.61472 20.66835,1.61472 z"
         id="path5711" /><path
         d="m 982.39385,-384.60427 v -223.7995 H 1111.571 v 19.05364 h -107.217 v 77.82926 h 95.5911 v 18.73069 h -95.5911 v 89.13227 h 115.6136 v 19.05364 z"
         id="path5713" /></g></g></svg>
