<?xml version="1.0" encoding="UTF-8" standalone="no"?>
<!-- Created with Inkscape (http://www.inkscape.org/) -->

<svg
   width="178.44562mm"
   height="162.00458mm"
   viewBox="0 0 178.44562 162.00458"
   version="1.1"
   id="svg5"
   xml:space="preserve"
   xmlns:inkscape="http://www.inkscape.org/namespaces/inkscape"
   xmlns:sodipodi="http://sodipodi.sourceforge.net/DTD/sodipodi-0.dtd"
   xmlns:xlink="http://www.w3.org/1999/xlink"
   xmlns="http://www.w3.org/2000/svg"
   xmlns:svg="http://www.w3.org/2000/svg"><sodipodi:namedview
     id="namedview7"
     pagecolor="#eeeeee"
     bordercolor="#eeeeee"
     borderopacity="1"
     inkscape:showpageshadow="0"
     inkscape:pageopacity="0"
     inkscape:pagecheckerboard="0"
     inkscape:deskcolor="#eeeeee"
     inkscape:document-units="mm"
     showgrid="false"
     showborder="false"
     showguides="true" /><defs
     id="defs2"><linearGradient
       inkscape:collect="always"
       id="linearGradient7425"><stop
         style="stop-color:#79d0e1;stop-opacity:1;"
         offset="0"
         id="stop7421" /><stop
         style="stop-color:#c7e9f4;stop-opacity:1;"
         offset="0.22547516"
         id="stop7423" /></linearGradient><linearGradient
       inkscape:collect="always"
       id="linearGradient7257"><stop
         style="stop-color:#79d0e1;stop-opacity:1;"
         offset="0.31443903"
         id="stop7253" /><stop
         style="stop-color:#c7e9f4;stop-opacity:1;"
         offset="0.74723089"
         id="stop7255" /></linearGradient><linearGradient
       inkscape:collect="always"
       id="linearGradient7184"><stop
         style="stop-color:#79d0e1;stop-opacity:1;"
         offset="0.5697425"
         id="stop7180" /><stop
         style="stop-color:#c7e9f4;stop-opacity:1;"
         offset="1"
         id="stop7182" /></linearGradient><linearGradient
       inkscape:collect="always"
       id="linearGradient7178"><stop
         style="stop-color:#79d0e1;stop-opacity:1;"
         offset="0.07478873"
         id="stop7174" /><stop
         style="stop-color:#c7e9f4;stop-opacity:1;"
         offset="0.52210885"
         id="stop7176" /></linearGradient><linearGradient
       inkscape:collect="always"
       id="linearGradient7028"><stop
         style="stop-color:#79d0e1;stop-opacity:1;"
         offset="0.34006912"
         id="stop7024" /><stop
         style="stop-color:#c7e9f4;stop-opacity:1;"
         offset="0.89625996"
         id="stop7026" /></linearGradient><linearGradient
       id="linearGradient1704"
       inkscape:swatch="solid"><stop
         style="stop-color:#55565a;stop-opacity:1;"
         offset="0"
         id="stop1702" /></linearGradient><linearGradient
       inkscape:collect="always"
       xlink:href="#linearGradient7028"
       id="linearGradient7030"
       x1="271.68274"
       y1="60.681042"
       x2="297.56979"
       y2="60.681042"
       gradientUnits="userSpaceOnUse"
       gradientTransform="matrix(0,6.2581239,-0.21340778,0,370.6707,-1752.1802)" /><linearGradient
       inkscape:collect="always"
       xlink:href="#linearGradient7257"
       id="linearGradient7126"
       gradientUnits="userSpaceOnUse"
       gradientTransform="matrix(0,6.2581239,-0.21340778,0,332.8648,-1752.1802)"
       x1="271.68274"
       y1="60.681042"
       x2="297.56979"
       y2="60.681042" /><linearGradient
       inkscape:collect="always"
       xlink:href="#linearGradient7184"
       id="linearGradient7171"
       gradientUnits="userSpaceOnUse"
       gradientTransform="matrix(0,6.2581239,-0.21340778,0,408.47661,-1752.1802)"
       x1="271.68274"
       y1="60.681042"
       x2="297.56979"
       y2="60.681042" /><linearGradient
       inkscape:collect="always"
       xlink:href="#linearGradient7178"
       id="linearGradient7250"
       gradientUnits="userSpaceOnUse"
       gradientTransform="matrix(0,6.2581239,-0.21340778,0,295.05898,-1752.1802)"
       x1="271.68274"
       y1="60.681042"
       x2="297.56979"
       y2="60.681042" /><linearGradient
       inkscape:collect="always"
       xlink:href="#linearGradient7425"
       id="linearGradient7418"
       gradientUnits="userSpaceOnUse"
       gradientTransform="matrix(0,6.2581239,-0.21340778,0,257.25307,-1752.1802)"
       x1="271.68274"
       y1="60.681042"
       x2="297.56979"
       y2="60.681042" /></defs><g
     inkscape:groupmode="layer"
     id="layer2"
     inkscape:label="Option 2"
     style="display:inline"
     transform="translate(158.76348,-38.338015)"><g
       inkscape:label="Layer 1"
       id="layer1-5"
       transform="translate(-389.45571,90.294039)"
       inkscape:export-filename="myoguide-diagnose_banner.svg"
       inkscape:export-xdpi="96"
       inkscape:export-ydpi="96"><path
         id="rect7022"
         style="fill:url(#linearGradient7030);fill-opacity:1;stroke-width:0.529998;stroke-linecap:round;stroke-linejoin:round;stroke-miterlimit:4.5;stroke-opacity:0.937255"
         d="m 357.72116,-51.956024 c -7.5405,0 -13.61106,6.070561 -13.61106,13.611055 v 32.1355056 h 27.2216 V -38.344969 c 0,-7.540494 -6.07005,-13.611055 -13.61054,-13.611055 z M 344.1101,11.149168 v 85.288333 c 0,7.540489 6.07056,13.611059 13.61106,13.611059 7.54049,0 13.61054,-6.07057 13.61054,-13.611059 V 11.149168 Z" /><path
         id="rect7022-2"
         style="fill:url(#linearGradient7126);fill-opacity:1;stroke-width:0.529998;stroke-linecap:round;stroke-linejoin:round;stroke-miterlimit:4.5;stroke-opacity:0.937255"
         d="m 319.9152,-51.956024 c -7.5405,0 -13.61106,6.070561 -13.61106,13.611055 V 25.48266 h 27.22211 v -63.827629 c 0,-7.540494 -6.07056,-13.611055 -13.61105,-13.611055 z M 306.30414,42.84129 v 53.596211 c 0,7.540489 6.07056,13.611059 13.61106,13.611059 7.54049,0 13.61105,-6.07057 13.61105,-13.611059 V 42.84129 Z" /><path
         id="rect7022-2-7"
         style="fill:url(#linearGradient7250);fill-opacity:1;stroke-width:0.529998;stroke-linecap:round;stroke-linejoin:round;stroke-miterlimit:4.5;stroke-opacity:0.937255"
         d="m 282.10924,-51.956024 c -7.5405,0 -13.61106,6.070561 -13.61106,13.611055 V 66.073464 h 27.22211 V -38.344969 c 0,-7.540494 -6.07056,-13.611055 -13.61105,-13.611055 z M 268.49818,83.432091 v 13.00541 c 0,7.540489 6.07056,13.611059 13.61106,13.611059 7.54049,0 13.61105,-6.07057 13.61105,-13.611059 v -13.00541 z" /><path
         id="rect7022-2-7-5"
         style="fill:url(#linearGradient7418);fill-opacity:1;stroke-width:0.529998;stroke-linecap:round;stroke-linejoin:round;stroke-miterlimit:4.5;stroke-opacity:0.937255"
         d="m 244.30327,-51.956024 c -7.54049,0 -13.61105,6.070561 -13.61105,13.611055 v 26.702763 h 27.22211 v -26.702763 c 0,-7.540494 -6.07056,-13.611055 -13.61106,-13.611055 z M 230.69222,5.7159076 V 96.437501 c 0,7.540489 6.07056,13.611059 13.61105,13.611059 7.5405,0 13.61106,-6.07057 13.61106,-13.611059 V 5.7159076 Z" /><path
         id="rect7022-2-1"
         style="fill:url(#linearGradient7171);fill-opacity:1;stroke-width:0.529998;stroke-linecap:round;stroke-linejoin:round;stroke-miterlimit:4.5;stroke-opacity:0.937255"
         d="m 395.5266,-51.956024 c -7.54049,0 -13.61054,6.070561 -13.61054,13.611055 v 90.697823 h 27.2216 v -90.697823 c 0,-7.540494 -6.07056,-13.611055 -13.61106,-13.611055 z M 381.91606,69.710968 v 26.726533 c 0,7.540489 6.07005,13.611059 13.61054,13.611059 7.5405,0 13.61106,-6.07057 13.61106,-13.611059 V 69.710968 Z" /><path
         id="rect8256"
         style="fill:#55565a;stroke-width:0.53;stroke-linecap:round;stroke-linejoin:round;stroke-miterlimit:4.5;stroke-opacity:0.937255"
         d="m 230.69226,-8.0788565 h 27.22202 v 10.231617 h -27.22202 z" /><path
         id="rect8256-6"
         style="fill:#55565a;stroke-width:0.53;stroke-linecap:round;stroke-linejoin:round;stroke-miterlimit:4.5;stroke-opacity:0.937255"
         d="m 268.49814,69.636917 h 27.22202 v 10.231617 h -27.22202 z" /><path
         id="rect8256-5"
         style="fill:#55565a;stroke-width:0.53;stroke-linecap:round;stroke-linejoin:round;stroke-miterlimit:4.5;stroke-opacity:0.937255"
         d="m 306.30405,29.046154 h 27.22202 v 10.231617 h -27.22202 z" /><path
         id="rect8256-69"
         style="fill:#55565a;stroke-width:0.53;stroke-linecap:round;stroke-linejoin:round;stroke-miterlimit:4.5;stroke-opacity:0.937255"
         d="m 344.10992,-2.6459954 h 27.22203 v 10.231617 h -27.22203 z" /><path
         id="rect8256-3"
         style="fill:#55565a;stroke-width:0.53;stroke-linecap:round;stroke-linejoin:round;stroke-miterlimit:4.5;stroke-opacity:0.937255"
         d="m 381.91583,55.916157 h 27.22202 v 10.231617 h -27.22202 z" /></g></g></svg>
